<svg xmlns="http://www.w3.org/2000/svg" xmlns:xlink="http://www.w3.org/1999/xlink" version="1.1" id="Capa_1" x="0px" y="0px" viewBox="0 0 1080 1080" style="enable-background:new 0 0 1080 1080;" xml:space="preserve">
<style type="text/css">
	.st0{fill:#0BD5FD;}
	.st1{fill:#24CC6E;}
	.st2{fill:#723BAD;}
	.st3{fill:#F5C127;}
	.st4{fill:#FD5000;}
	.st5{fill:#10CFC9;}
</style>
<g>
	<path class="st0" d="M772.4,602.4c-0.2,0-0.3,0-0.5,0c-10.6-0.2-19-9-18.8-19.7c0.5-22-7.6-42.9-22.8-58.8   c-15.2-15.9-35.7-25-57.7-25.5c-21.9-0.4-42.9,7.6-58.8,22.8c-15.9,15.2-25,35.7-25.5,57.7c-0.2,10.5-8.8,18.8-19.2,18.8   c-0.2,0-0.3,0-0.5,0c-10.6-0.2-19-9-18.8-19.7c0.8-32.3,14-62.3,37.4-84.6c23.4-22.3,54-34.2,86.3-33.4c32.3,0.8,62.3,14,84.6,37.4   c22.3,23.4,34.1,54,33.4,86.3C791.4,594.1,782.8,602.4,772.4,602.4z"/>
	<path class="st1" d="M666.3,792.3c-0.2,0-0.3,0-0.5,0c-56.5-1.3-109.1-24.6-148.1-65.5c-39-40.9-59.8-94.5-58.4-151   c1.3-56.5,24.6-109.1,65.5-148.1c40.9-39,94.6-59.8,151-58.4c10.6,0.2,19,9,18.8,19.7c-0.2,10.6-9,19.2-19.7,18.8   c-46.2-1.1-90.1,15.9-123.6,47.8c-33.5,31.9-52.5,75-53.6,121.2s15.9,90.1,47.8,123.6c31.9,33.5,75,52.5,121.2,53.6   c10.6,0.2,19,9,18.8,19.7C685.2,784,676.7,792.3,666.3,792.3z"/>
	<path class="st2" d="M823.6,838.4c-6.3,0-12.5-3.1-16.2-8.8c-5.7-8.9-3.1-20.8,5.8-26.5c74-47.5,119.4-128.3,121.5-216.1   c3.4-145.5-112.2-266.6-257.7-270c-84.4-2-165.5,37.1-216.6,104.5c-6.4,8.5-18.5,10.1-26.9,3.7c-8.5-6.4-10.1-18.5-3.7-26.9   c58.6-77.2,151.5-122,248.1-119.7C844.5,282.4,977,421.2,973,587.9c-2.4,100.6-54.4,193.1-139.1,247.5   C830.7,837.4,827.1,838.4,823.6,838.4z"/>
	<path class="st3" d="M430.5,886.5c-4.4,0-8.7-1.5-12.3-4.5c-92-77.3-143.2-190.4-140.4-310.4c5.1-216.7,185.6-389,402.2-383.8   c108.9,2.6,212.8,50.8,285.1,132.4c7,7.9,6.3,20.1-1.6,27.1c-7.9,7-20.1,6.3-27.1-1.6c-65.2-73.6-159-117.2-257.2-119.5   C483.6,221.7,320.8,377,316.2,572.5c-2.5,108.3,43.6,210.4,126.7,280.1c8.1,6.8,9.2,18.9,2.4,27.1   C441.4,884.1,436,886.5,430.5,886.5z"/>
	<path class="st1" d="M670.8,1064.7c-3.8,0-7.6,0-11.4-0.1c-129.2-3-249.5-56.2-338.7-149.7C231.5,821.3,184,698.6,187,569.4   c3.6-154.8,82.1-299.8,209.9-387.6c8.7-6,20.7-3.8,26.7,4.9c6,8.7,3.8,20.7-4.9,26.7C301,294.4,228.8,427.8,225.4,570.3   c-2.8,119,40.9,231.9,123,318s192.9,135,311.8,137.8c78.6,1.8,156.5-17.1,225-54.9c9.3-5.1,21-1.7,26.1,7.6   c5.1,9.3,1.7,21-7.6,26.1C832.7,1044.1,752.4,1064.7,670.8,1064.7z"/>
	<path class="st4" d="M670.8,1064.7c-3.8,0-7.6,0-11.4-0.1c-129.2-3-249.5-56.2-338.7-149.7C231.5,821.3,184,698.6,187,569.4   c3.6-154.8,82.1-299.8,209.9-387.6c8.7-6,20.7-3.8,26.7,4.9c6,8.7,3.8,20.7-4.9,26.7C301,294.4,228.8,427.8,225.4,570.3   c-2.8,119,40.9,231.9,123,318s192.9,135,311.8,137.8c78.6,1.8,156.5-17.1,225-54.9c9.3-5.1,21-1.7,26.1,7.6   c5.1,9.3,1.7,21-7.6,26.1C832.7,1044.1,752.4,1064.7,670.8,1064.7z"/>
	<path class="st1" d="M659.4,1064.5"/>
	<path class="st5" d="M126.1,600c-10.6,0-19.2-8.6-19.2-19.2c0-112,32.7-220.2,94.5-313c57.5-86.3,137.5-155.2,231.2-199.1   C507.8,33.5,588.3,15.7,672,15.7c10.6,0,19.2,8.6,19.2,19.2s-8.6,19.2-19.2,19.2c-78,0-153.1,16.6-223.1,49.4   C361.5,144.4,287,208.6,233.4,289.1c-57.6,86.5-88.1,187.3-88.1,291.7C145.3,591.4,136.7,600,126.1,600z"/>
</g>
</svg>